<svg xmlns="http://www.w3.org/2000/svg" viewBox="0 0 500 500"><g id="freepik--Table--inject-282"><path d="M476.39,390.62c0,.14-101.37.26-226.38.26s-226.4-.12-226.4-.26,101.34-.26,226.4-.26S476.39,390.47,476.39,390.62Z" style="fill:#263238"></path></g><g id="freepik--Bowl--inject-282"><path d="M323.29,406.76a54.44,54.44,0,0,0,108.87,0" style="fill:#0187A7"></path><path d="M432.16,406.23c0,3.93-24.37,7.11-54.44,7.11s-54.43-3.18-54.43-7.11,24.37-7.11,54.43-7.11S432.16,402.3,432.16,406.23Z" style="fill:#0187A7"></path><path d="M328.51,409.27c8.72,2.41,27.48,4.07,49.21,4.07s40.5-1.66,49.22-4.07c-8.72-2.41-27.48-4.08-49.22-4.08S337.23,406.86,328.51,409.27Z" style="fill:#ffbf9d"></path><path d="M432.16,406.76a2.39,2.39,0,0,1,0,.44c0,.31,0,.74,0,1.29s-.05,1.28-.08,2.11a19.77,19.77,0,0,1-.24,2.87c-.15,1.07-.33,2.26-.52,3.56a15.9,15.9,0,0,1-.43,2c-.18.69-.36,1.41-.55,2.16a23.26,23.26,0,0,1-.63,2.3l-.87,2.4c-.32.81-.56,1.68-1,2.51s-.8,1.69-1.22,2.56a45.93,45.93,0,0,1-3,5.31A24,24,0,0,1,421.8,439c-.66.87-1.32,1.79-2,2.68l-2.34,2.58c-.4.44-.78.9-1.21,1.31l-1.34,1.22c-.91.81-1.78,1.69-2.76,2.46l-3,2.28-.78.58-.82.51-1.68,1-1.69,1c-.57.36-1.19.6-1.79.91-1.22.57-2.42,1.21-3.69,1.74l-3.9,1.43a54.2,54.2,0,0,1-34,0l-3.9-1.43c-1.27-.53-2.47-1.17-3.69-1.74-.6-.31-1.22-.55-1.79-.91l-1.69-1-1.68-1-.82-.51-.78-.58-3-2.28c-1-.77-1.85-1.65-2.76-2.46l-1.34-1.22c-.43-.42-.81-.87-1.21-1.31l-2.34-2.58c-.71-.89-1.36-1.81-2-2.69a23,23,0,0,1-1.84-2.66,46.77,46.77,0,0,1-3-5.31c-.42-.87-.82-1.73-1.22-2.56s-.65-1.7-1-2.52l-.87-2.39a23.26,23.26,0,0,1-.63-2.3c-.19-.75-.37-1.47-.55-2.16a15.9,15.9,0,0,1-.43-2c-.19-1.3-.37-2.49-.52-3.57a19.53,19.53,0,0,1-.24-2.86c0-.83-.06-1.53-.08-2.11s0-1,0-1.29a2.39,2.39,0,0,1,0-.44,2,2,0,0,1,0,.44q0,.46.09,1.29c0,.57.08,1.27.13,2.1a21.66,21.66,0,0,0,.29,2.85c.17,1.07.36,2.25.56,3.55a15.79,15.79,0,0,0,.45,2c.18.69.37,1.4.57,2.14a20.07,20.07,0,0,0,.65,2.28c.28.77.58,1.56.88,2.38s.57,1.67,1,2.49l1.23,2.54a47.83,47.83,0,0,0,3,5.25,23.68,23.68,0,0,0,1.84,2.64c.66.87,1.31,1.77,2,2.66s1.54,1.68,2.33,2.55c.4.42.78.88,1.21,1.29l1.33,1.21c.9.79,1.77,1.66,2.75,2.43l3,2.25.77.57.82.51,1.66,1,1.68,1c.56.35,1.18.59,1.78.9,1.2.56,2.4,1.19,3.65,1.71l3.87,1.41a53.8,53.8,0,0,0,33.72,0l3.86-1.41c1.26-.52,2.45-1.15,3.66-1.72.59-.3,1.21-.54,1.77-.89l1.68-1,1.66-1,.82-.51.77-.57,3-2.25c1-.77,1.84-1.64,2.75-2.43l1.33-1.21c.43-.41.81-.86,1.21-1.29.79-.87,1.56-1.72,2.33-2.55s1.35-1.79,2-2.66a22.79,22.79,0,0,0,1.84-2.64,46.92,46.92,0,0,0,3-5.25l1.23-2.54c.4-.82.65-1.68,1-2.49s.6-1.61.88-2.37a20.83,20.83,0,0,0,.65-2.29c.2-.74.39-1.45.57-2.14a17.73,17.73,0,0,0,.45-2c.2-1.3.39-2.48.56-3.55a21.66,21.66,0,0,0,.29-2.85c.05-.82.09-1.53.13-2.1l.09-1.29A2,2,0,0,1,432.16,406.76Z" style="fill:#263238"></path><path d="M432.16,406.23a1,1,0,0,1,0-.14,1,1,0,0,0-.16-.39,3.07,3.07,0,0,0-1.27-1.05,25.13,25.13,0,0,0-6.16-1.95A170.14,170.14,0,0,0,400.81,400c-10.07-.58-22.1-.84-35.43-.43-6.67.22-13.67.59-20.89,1.31-3.6.37-7.27.82-10.95,1.49-1.84.34-3.68.73-5.49,1.25a18.19,18.19,0,0,0-2.65,1,5.4,5.4,0,0,0-1.19.7c-.33.27-.66.61-.65,1s.31.69.64,1a7,7,0,0,0,1.19.7,17.06,17.06,0,0,0,2.65,1,55.15,55.15,0,0,0,5.49,1.26c3.68.66,7.35,1.11,11,1.48,7.22.73,14.22,1.1,20.89,1.31,13.33.41,25.36.16,35.43-.42a171.69,171.69,0,0,0,23.72-2.73,25.13,25.13,0,0,0,6.16-1.95,3.07,3.07,0,0,0,1.27-1.05,1,1,0,0,0,.16-.39,1,1,0,0,1,0-.14.72.72,0,0,1,0,.14.8.8,0,0,1-.13.41,3,3,0,0,1-1.27,1.12,23.67,23.67,0,0,1-6.17,2.05,161.44,161.44,0,0,1-23.73,2.9c-10.09.64-22.12.93-35.48.54-6.67-.2-13.68-.56-20.92-1.28-3.62-.37-7.3-.82-11-1.49a52.19,52.19,0,0,1-5.55-1.26,18.09,18.09,0,0,1-2.72-1,6.29,6.29,0,0,1-1.29-.77,1.53,1.53,0,0,1,0-2.75,6,6,0,0,1,1.28-.76,18.61,18.61,0,0,1,2.73-1,54.83,54.83,0,0,1,5.55-1.27c3.7-.67,7.38-1.12,11-1.48,7.24-.73,14.25-1.08,20.92-1.29,13.35-.38,25.39-.09,35.47.54a164.41,164.41,0,0,1,23.74,2.9,24.14,24.14,0,0,1,6.17,2.06,3.05,3.05,0,0,1,1.27,1.11.85.85,0,0,1,.13.41A.86.86,0,0,1,432.16,406.23Z" style="fill:#263238"></path><path d="M396.75,412.71s23.68-47.57,29.54-48.46c3.77-.57,6.45,1.77,0,13.3C420,388.89,407.9,412,407.9,412Z" style="fill:#ae7461"></path></g><g id="freepik--Character--inject-282"><path d="M202,161.21l16.25-20.47c1.54-10.87-12.23-15.17-21.83-14.15s-18.41,6.19-25.16,13.08-11.62,15.4-15.66,24.16c-4.83,10.5-9,22-18.13,29.11-4.71,3.64-10.63,6-14,10.89a14.67,14.67,0,0,0,22,19.13c-2.13,5.32.43,11.83,5.19,15s11.16,3.32,16.47,1.17,9.61-6.33,12.82-11.07C193.19,208.5,188.88,180.89,202,161.21Z" style="fill:#263238"></path><path d="M283.88,274.37c1.14-9.37,1.35-16.08-.39-28.6-1.44-10.36-3.75-19.22-11.49-24.51l-15.35,38.65-7.29,45.2-1.84,17,1.84,29.2h34.79a4.94,4.94,0,0,0,4.88-5.72l-3.22-20V312.4Z" style="fill:#e0e0e0"></path><path d="M257.34,343.76C258,344.94,265.6,367,265.6,367h0a26.43,26.43,0,0,0,12.45,22.42l1.49.92,8.84.14s.08.05,1.33.46c0,0,.56,1.19,5,2a10.4,10.4,0,0,0,2.3.17l16-.53s4.55-2.19,4.55-4.55a2.5,2.5,0,0,0-1.85-2.7s1.19-4.39-.51-6.74a19.66,19.66,0,0,0-4.3-4.1,59.64,59.64,0,0,1-2.61-6.69c-.84-2.87-4.08-3-4.08-3s-1.6-4-3.51-4.77c-3-1.27-6.06-1.35-13.23,1.18l-2.11.5s.51-12.47,1-12.81-.68-8.43-10.29-10.45S257.34,343.76,257.34,343.76Z" style="fill:#ae7461"></path><path d="M299.27,370.35a3.65,3.65,0,0,1-.48.88c-.34.54-.86,1.33-1.53,2.27a71.42,71.42,0,0,1-5.68,7c-1.18,1.31-2.41,2.49-3.45,3.57a5.07,5.07,0,0,0-1.65,3.4,2.89,2.89,0,0,0,1.1,2.26,3.77,3.77,0,0,0,.89.39s-.1,0-.27,0a1.85,1.85,0,0,1-.73-.24,3,3,0,0,1-1.36-2.41,5.27,5.27,0,0,1,1.67-3.74c1.05-1.14,2.24-2.29,3.41-3.6,2.38-2.58,4.37-5,5.78-6.87S299.21,370.3,299.27,370.35Z" style="fill:#6f4439"></path><path d="M304.22,365.6a5.91,5.91,0,0,1,.68,1.14,19.57,19.57,0,0,1,1.3,3.39,11.56,11.56,0,0,1,.31,5.4,7.31,7.31,0,0,1-.5,1.52,7.13,7.13,0,0,1-.92,1.39c-.68.86-1.43,1.73-2.21,2.59-1.57,1.73-3.1,3.33-4.6,4.71A27,27,0,0,1,294,389a18.92,18.92,0,0,1-3.27,1.58,5.22,5.22,0,0,1-1.28.37,39.21,39.21,0,0,0,4.36-2.26,29.45,29.45,0,0,0,4.18-3.27c1.45-1.37,3-3,4.53-4.7.78-.86,1.52-1.71,2.2-2.56a5.9,5.9,0,0,0,1.35-2.7,11.73,11.73,0,0,0-.19-5.2A41.89,41.89,0,0,0,304.22,365.6Z" style="fill:#6f4439"></path><path d="M313.54,379.75s-.16.31-.53.81a25.38,25.38,0,0,1-1.71,2,34.48,34.48,0,0,1-14.57,9.21,24.2,24.2,0,0,1-2.55.68,3,3,0,0,1-1,.14c0-.08,1.31-.42,3.39-1.17a40.28,40.28,0,0,0,7.71-3.77,41,41,0,0,0,6.72-5.35C312.6,380.76,313.47,379.7,313.54,379.75Z" style="fill:#6f4439"></path><path d="M314.94,385.34a6.92,6.92,0,0,1-1.48,1.56,29.28,29.28,0,0,1-4.16,3.1,30.88,30.88,0,0,1-4.62,2.34,7.23,7.23,0,0,1-2.05.63c-.06-.15,3-1.3,6.4-3.42S314.83,385.23,314.94,385.34Z" style="fill:#6f4439"></path><path d="M290.4,364.89c.16,0,.57,2.59,1.75,5.55a6.23,6.23,0,0,0,2.46,3.07,10.36,10.36,0,0,0,1.55.63,2.39,2.39,0,0,1-1.73-.31,6,6,0,0,1-2.75-3.18A14.83,14.83,0,0,1,290.4,364.89Z" style="fill:#6f4439"></path><path d="M273.33,372.23a1.9,1.9,0,0,1,.41.1,10.69,10.69,0,0,1,1.11.44,26.15,26.15,0,0,1,3.81,2.18,28.8,28.8,0,0,0,5.63,3.09,9.66,9.66,0,0,0,3.67.59,6.46,6.46,0,0,0,3.67-1.29,3.65,3.65,0,0,0,1.17-1.52,2.25,2.25,0,0,0-.1-1.78,9.07,9.07,0,0,0-1-1.62c-.37-.52-.74-1-1.13-1.48a29.47,29.47,0,0,0-4.6-4.49,30.86,30.86,0,0,0-3.61-2.42,11.69,11.69,0,0,1-1.39-.82,1.38,1.38,0,0,1,.4.14,11.87,11.87,0,0,1,1.08.5,25.29,25.29,0,0,1,3.74,2.31,27.31,27.31,0,0,1,4.75,4.48c.4.47.79,1,1.17,1.49a9.81,9.81,0,0,1,1.06,1.7,2.83,2.83,0,0,1,.12,2.16,4.09,4.09,0,0,1-1.34,1.76,6.88,6.88,0,0,1-4,1.39,9.9,9.9,0,0,1-3.85-.65,26.68,26.68,0,0,1-5.67-3.24,35.31,35.31,0,0,0-3.7-2.3C273.85,372.47,273.31,372.27,273.33,372.23Z" style="fill:#6f4439"></path><path d="M282.81,386.63a24,24,0,0,0-.31-4.92,24.63,24.63,0,0,0-1.78-4.59,9.93,9.93,0,0,1,2.09,9.51Z" style="fill:#6f4439"></path><path d="M279.16,362a5.84,5.84,0,0,0-2.14-.67,5.34,5.34,0,0,0-2.37.36,8,8,0,0,0-2.49,1.61c-1.57,1.46-2.68,3.13-3.67,4.18a5.74,5.74,0,0,1-1.76,1.53c-.05-.06.6-.65,1.48-1.77a37.18,37.18,0,0,1,3.6-4.33,7.89,7.89,0,0,1,2.67-1.67,5.46,5.46,0,0,1,2.58-.28A2.91,2.91,0,0,1,279.16,362Z" style="fill:#6f4439"></path><path d="M199.29,171l-14.82,9.75-40.68,2.59-12.11,62.12,2.21,92L115.7,390.68l143.61-.1L246,328.75c-1-6.08-.45-10.54,1.57-14.41l9.58-18.42,1-37.27,14.19-36.93-29.72-18.41-7.46-7.85Z" style="fill:#e0e0e0"></path><path d="M313.53,66.18c-3.91-6.18-10.42-10.32-17.24-13a193.61,193.61,0,0,0-22-7c-10.38-2.57-20-4.9-30.66-4.36-9.58.48-18.67,4.27-27.17,8.69-14,7.27-27.23,16.6-36.89,29.08a15.58,15.58,0,0,0-3.38,6.41c-.59,3,.49,6.13,1.8,8.93a51.27,51.27,0,0,0,34.35,27.73L279.1,111c8.49-3.13,33.23-14.94,36.3-22.2A24.93,24.93,0,0,0,313.53,66.18Z" style="fill:#e0e0e0"></path><path d="M313.53,66.18s.22.34.63,1a23,23,0,0,1,1.52,3.15,25.18,25.18,0,0,1,1.37,13.19A23.82,23.82,0,0,1,315.87,88a8.72,8.72,0,0,1-1.1,2.23,14.13,14.13,0,0,1-1.69,2,52.27,52.27,0,0,1-9.16,6.8c-3.48,2.15-7.31,4.24-11.43,6.31s-8.54,4.13-13.32,6h0L212.44,123h-.1a51.21,51.21,0,0,1-17.82-8.07,52.5,52.5,0,0,1-14-14.8c-.76-1.31-1.54-2.6-2.19-4A28.06,28.06,0,0,1,176.55,92a13.44,13.44,0,0,1-.73-4.45A9.88,9.88,0,0,1,177,83.22a22.63,22.63,0,0,1,2.43-3.69c.92-1.14,1.81-2.29,2.78-3.37a83.53,83.53,0,0,1,5.94-6.23A121.13,121.13,0,0,1,214.9,51.16a104.08,104.08,0,0,1,13.9-6.33,52.2,52.2,0,0,1,14-3.1c9.33-.62,18,1.11,25.61,2.9,3.83.93,7.49,1.81,10.91,2.79s6.62,2,9.59,3,5.71,2,8.2,3a45.14,45.14,0,0,1,6.57,3.3,31.14,31.14,0,0,1,7.74,6.56,20.27,20.27,0,0,1,2.06,2.88s-.18-.24-.52-.73c-.17-.25-.39-.55-.66-.89s-.58-.76-1-1.19a32,32,0,0,0-7.77-6.46,44.92,44.92,0,0,0-6.55-3.24c-2.49-1-5.24-2-8.21-3s-6.16-2-9.58-3S272.21,45.9,268.37,45c-7.65-1.77-16.23-3.46-25.49-2.83A52.3,52.3,0,0,0,229,45.26a104.25,104.25,0,0,0-13.82,6.32A121.1,121.1,0,0,0,188.47,70.3a80.62,80.62,0,0,0-5.9,6.2,40.41,40.41,0,0,0-5.14,7,9.44,9.44,0,0,0-1.09,4.12,12.86,12.86,0,0,0,.71,4.28,26.41,26.41,0,0,0,1.75,4.07c.64,1.34,1.41,2.62,2.17,3.91a51.73,51.73,0,0,0,13.85,14.66,50.59,50.59,0,0,0,17.63,8h-.1l66.72-11.64h0c4.75-1.81,9.16-3.87,13.29-5.91s7.95-4.13,11.43-6.25A53,53,0,0,0,312.88,92a10,10,0,0,0,2.75-4.09,24,24,0,0,0,1.19-4.39,25.19,25.19,0,0,0-1.26-13.1,24.36,24.36,0,0,0-1.45-3.17C313.72,66.54,313.53,66.18,313.53,66.18Z" style="fill:#263238"></path><path d="M221.93,82.34c0,.15-7.84-.56-17.48-1.58s-17.44-2-17.42-2.1,7.84.57,17.48,1.58S221.94,82.2,221.93,82.34Z" style="fill:#263238"></path><path d="M296.94,72.23a11.61,11.61,0,0,1-1.28,2.25c-.85,1.35-2.08,3.19-3.5,5.17s-2.78,3.72-3.79,4.95a12.36,12.36,0,0,1-1.74,1.93,13.07,13.07,0,0,1,1.45-2.15c1-1.44,2.28-3.15,3.66-5s2.58-3.62,3.62-5.06A13.67,13.67,0,0,1,296.94,72.23Z" style="fill:#263238"></path><path d="M312,81.76a22,22,0,0,1-2.88,1.29c-1.79.75-4.26,1.79-6.95,3s-5.11,2.41-6.85,3.28a21.34,21.34,0,0,1-2.85,1.34A17.35,17.35,0,0,1,295.12,89c1.7-1,4.09-2.19,6.8-3.43s5.21-2.23,7-2.9A17.69,17.69,0,0,1,312,81.76Z" style="fill:#263238"></path><path d="M213.18,86.24c15.63-6.9,26.7-12.64,43.42-8.24,9.44,2.48,12.25-2.63,18.51,1.1S286.44,88.16,288.87,95c2.88,8.14,4.77,16.89,3.36,25.41-1.46,8.76-2.93,17.57-6,25.92s-7.75,16.27-14.71,21.78l-22.74-2.31c-12.09-3-24.35-6-35.25-12s-22.38-15.08-23.85-27.44C187.71,109.48,197.36,93.22,213.18,86.24Z" style="fill:#263238"></path><path d="M267.74,83.72l-7.31-3L228.3,84.1a8.36,8.36,0,0,0-9.82,5.62l-17.93,82.52,34.91,36.26c2-7.65,5.4-21.92,5.4-21.92s19.87,3.54,31.11-17.75c5.59-10.59,11.29-29.14,15.45-44.46C291.17,110.58,284.71,88.55,267.74,83.72Z" style="fill:#ae7461"></path><path d="M273.26,141.9a3.05,3.05,0,0,1-3.78,2,2.92,2.92,0,0,1-2.09-3.62,3,3,0,0,1,3.77-2A2.92,2.92,0,0,1,273.26,141.9Z" style="fill:#263238"></path><path d="M280.1,130.56c-.49.25-2.12-2.11-5.23-3.16s-5.92-.27-6.13-.77c-.1-.22.49-.78,1.73-1.16a8.33,8.33,0,0,1,5.06.15,8,8,0,0,1,4,3C280.24,129.66,280.33,130.45,280.1,130.56Z" style="fill:#263238"></path><path d="M252.88,149.61c.05-.18,2.09.15,5.36.81.82.19,1.62.29,1.94-.21a4.27,4.27,0,0,0,.27-2.53q-.13-3.26-.29-6.84c-.32-9.71-.27-17.58.12-17.59s1,7.85,1.3,17.56q.09,3.58.18,6.84a4.89,4.89,0,0,1-.65,3.26,2.1,2.1,0,0,1-1.7.71,5.79,5.79,0,0,1-1.41-.27C254.79,150.45,252.83,149.8,252.88,149.61Z" style="fill:#263238"></path><path d="M240.9,186.56a60.47,60.47,0,0,1-27.4-18.31s2.71,18.34,26,23.91Z" style="fill:#6f4439"></path><path d="M282.12,119.21c-.78.58-3-.74-5.84-1.45s-5.41-.77-5.79-1.66c-.16-.43.4-1.07,1.62-1.5a9.3,9.3,0,0,1,9.37,2.51C282.32,118.09,282.48,118.92,282.12,119.21Z" style="fill:#263238"></path><path d="M240,131.57a3,3,0,0,0,1.94,3.79,2.91,2.91,0,0,0,3.8-1.73,3.05,3.05,0,0,0-1.93-3.79A2.93,2.93,0,0,0,240,131.57Z" style="fill:#263238"></path><path d="M237.74,117.36c.25.49,3-.49,6.1.46s5,3.22,5.43,2.93c.22-.12,0-.92-.73-2a8.35,8.35,0,0,0-4.21-2.81,8,8,0,0,0-5,.1C238.15,116.54,237.62,117.13,237.74,117.36Z" style="fill:#263238"></path><path d="M242.48,107.78c.4.9,3.05.89,6,1.73s5.24,2.09,6,1.51c.36-.29.19-1.12-.69-2.12a9.93,9.93,0,0,0-9.68-2.61C242.87,106.72,242.31,107.35,242.48,107.78Z" style="fill:#263238"></path><path d="M211.63,129.24c.56-1.68,0-6.29-1.59-7.11-4.19-2.2-12.28-4.56-16.18,6.64-5.33,15.31,11.14,17.51,11.32,17.08S209.67,135,211.63,129.24Z" style="fill:#ae7461"></path><path d="M202.91,138.78c0-.07-.33.1-.86.15a2.87,2.87,0,0,1-2-.66c-1.41-1.15-1.87-4.2-1-7a9.34,9.34,0,0,1,2.08-3.56,3.25,3.25,0,0,1,2.72-1.35,1.44,1.44,0,0,1,1.32,1.28c.05.5-.15.77-.08.82s.42-.14.52-.81a1.8,1.8,0,0,0-.27-1.17,2.16,2.16,0,0,0-1.34-.91,4,4,0,0,0-3.62,1.41A9.74,9.74,0,0,0,198,131c-1,3.12-.4,6.55,1.59,8a3,3,0,0,0,2.58.45C202.75,139.14,203,138.83,202.91,138.78Z" style="fill:#6f4439"></path><path d="M209.39,122l2.8,5.22c21.69-11.57,66.6-43.16,64.05-41.25,0,0-10.36-8.1-23.68-9.5s-39.22-1.8-43.05,13.29S209.39,122,209.39,122Z" style="fill:#263238"></path><path d="M190.83,111.91a3.59,3.59,0,0,1,.47-.82A16.28,16.28,0,0,1,193,109a23,23,0,0,1,8.27-5.41,42.14,42.14,0,0,1,14.33-2.64c5.48-.26,11.49,0,17.71-.83a75.83,75.83,0,0,0,17.17-4.29,79.1,79.1,0,0,0,13-6.37,83.09,83.09,0,0,0,8.09-5.6l2.09-1.68a4.14,4.14,0,0,1,.76-.55,4.15,4.15,0,0,1-.66.67c-.45.42-1.1,1-2,1.81a72.3,72.3,0,0,1-8,5.84,76.14,76.14,0,0,1-13.09,6.58,73.79,73.79,0,0,1-17.32,4.39c-6.31.88-12.35.56-17.78.78a42.77,42.77,0,0,0-14.16,2.42,23.69,23.69,0,0,0-8.25,5.1C191.57,110.83,190.9,112,190.83,111.91Z" style="fill:#455a64"></path><path d="M191.56,115.92a8.46,8.46,0,0,1,1.56-3.23A16.53,16.53,0,0,1,201,107c3.94-1.52,9-1.72,14.43-1.45a80,80,0,0,0,17.6-.6A70.51,70.51,0,0,0,250,100.1a73.35,73.35,0,0,0,12.6-6.93,78.28,78.28,0,0,0,7.63-6l1.93-1.81a3.36,3.36,0,0,1,.72-.59,4.32,4.32,0,0,1-.6.71l-1.83,1.93a66.33,66.33,0,0,1-7.52,6.27,70,70,0,0,1-12.63,7.15,69.6,69.6,0,0,1-17.07,5,77.86,77.86,0,0,1-17.76.54c-5.41-.31-10.36-.17-14.2,1.24a16.67,16.67,0,0,0-7.85,5.33A19.15,19.15,0,0,0,191.56,115.92Z" style="fill:#455a64"></path><path d="M192.37,104.37l3.87-7.6a21.27,21.27,0,0,1,1.95-3.19c5.58-7.53,14-11.67,23.11-14.71,8.49-2.84,24-6.31,37.49-4.31,30.45,4.51,37.28,14.55,37.28,14.55s.52,7-3.11,23.92C281.75,101.78,235.85,94.32,192.37,104.37Z" style="fill:#e0e0e0"></path><path d="M192.37,104.37l2-.48c1.28-.32,3.2-.72,5.72-1.21a184.35,184.35,0,0,1,21.63-2.76,188.49,188.49,0,0,1,32.81.54,136,136,0,0,1,19.35,3.43,73.62,73.62,0,0,1,10,3.3,30.17,30.17,0,0,1,9.28,5.66l-.43.13a147.23,147.23,0,0,0,3-19.49,40.45,40.45,0,0,0,.1-4.36l0,.12a20.33,20.33,0,0,0-4.57-3.93c-.82-.58-1.72-1.06-2.58-1.58s-1.77-.95-2.68-1.37A70.38,70.38,0,0,0,275,78.26c-1.84-.59-3.73-1-5.57-1.46s-3.7-.79-5.53-1.15-3.65-.62-5.45-.9-3.59-.4-5.36-.48A85.79,85.79,0,0,0,233,76a95,95,0,0,0-16.79,4.91A47.81,47.81,0,0,0,203.74,88a28.88,28.88,0,0,0-7.07,8.15l-4.3,8.22.25-.53c.19-.37.45-.9.79-1.59.69-1.4,1.72-3.51,3.09-6.19a28.54,28.54,0,0,1,7.06-8.28,47.93,47.93,0,0,1,12.54-7.19,94.68,94.68,0,0,1,16.85-5,85.32,85.32,0,0,1,20.12-1.79c1.79.07,3.59.23,5.41.48s3.63.59,5.47.89,3.69.74,5.56,1.14,3.73.87,5.59,1.46a72.22,72.22,0,0,1,11.15,4.13c.91.42,1.8.93,2.7,1.39s1.78,1,2.62,1.6A20.41,20.41,0,0,1,296.28,89l0,.05v.08a41.46,41.46,0,0,1-.1,4.43,147.4,147.4,0,0,1-3,19.57l-.1.45-.34-.33a29.81,29.81,0,0,0-9.11-5.56,74.43,74.43,0,0,0-9.89-3.29,136.41,136.41,0,0,0-19.28-3.45,191.67,191.67,0,0,0-32.73-.65,196.25,196.25,0,0,0-21.63,2.6c-2.5.46-4.46.84-5.79,1.12Z" style="fill:#263238"></path><path d="M241.88,65.22c.14-.07,1.19,1.94,2.74,4.25s3,4.08,2.87,4.18a15.52,15.52,0,0,1-3.31-3.89A15.39,15.39,0,0,1,241.88,65.22Z" style="fill:#263238"></path><path d="M238,154a5.1,5.1,0,0,1,2.6-2.52,5.23,5.23,0,0,1,6.18,1.47,7,7,0,0,1,.67,7.06h0a6.38,6.38,0,0,1-5.12,1.23,7.79,7.79,0,0,1-.83-.22,5.75,5.75,0,0,1-3.26-2.57A5.1,5.1,0,0,1,238,154Z" style="fill:#6f4439"></path><path d="M242.07,148.63c.52.16-.7,3.58,1.36,7.06s5.83,4.42,5.69,4.91c0,.23-1.06.37-2.61-.14a9.06,9.06,0,0,1-4.82-3.9,7.89,7.89,0,0,1-.92-5.84C241.15,149.24,241.84,148.53,242.07,148.63Z" style="fill:#263238"></path><path d="M251.09,347.59a1.58,1.58,0,0,1-.11-.3l-.27-.9q-.36-1.25-1-3.48l-1.55-5.51c-.29-1.08-.63-2.22-.93-3.45s-.57-2.55-.87-3.92a29.86,29.86,0,0,1-.83-9.17,17.59,17.59,0,0,1,1.27-5,27.45,27.45,0,0,1,2.66-4.77c2.05-3.1,4.82-6,5.71-10a53.92,53.92,0,0,0,1.65-12.3,129.33,129.33,0,0,0-.75-18.14v-.06l0-.06c4.74-11.8,8.82-22,11.73-29.22l3.43-8.43c.4-1,.72-1.71.94-2.25.1-.23.19-.42.25-.57a.92.92,0,0,1,.1-.19s0,.07-.06.2-.12.35-.21.59c-.21.55-.49,1.31-.86,2.28l-3.3,8.49-11.56,29.28,0-.12a127.29,127.29,0,0,1,.78,18.22,54.24,54.24,0,0,1-1.68,12.43,12.16,12.16,0,0,1-.48,1.44l-.53,1.42-.72,1.33-.36.65-.41.61q-1.68,2.39-3.3,4.65a20.35,20.35,0,0,0-3.9,9.55,29.75,29.75,0,0,0,.76,9.06c.29,1.37.57,2.67.83,3.91s.62,2.38.9,3.46l1.45,5.53c.39,1.49.69,2.67.9,3.5.1.38.17.68.22.92A1.21,1.21,0,0,1,251.09,347.59Z" style="fill:#263238"></path><g style="opacity:0.30000000000000004"><path d="M243.36,225.46l1.8,4.42s-11.25,46.05-12.8,64.68,4,51.3,4,51.3l-7.61.27c-3.87-21.18-4.74-40.69-2.25-58.33a89.4,89.4,0,0,1,3.94-21.31Z"></path></g><path d="M238,390.12s-.06-.2-.15-.61-.21-1-.37-1.78c-.33-1.59-.8-3.9-1.41-6.87-1.2-6-2.93-14.63-5.07-25.3-1.06-5.34-2.22-11.19-3.47-17.47-.7-3.13-1.07-6.44-1.59-9.81-.3-3.41-.72-6.9-.79-10.51-.67-14.42,1.17-30.31,4.72-46.54,2.17-9.88,4.83-19.35,7.58-28.28,1.37-4.46,2.78-8.79,4.17-13,.67-2.1,1.44-4.15,2-6.18s1-4.1,1.33-6.12l.08.22-5.24-4.79c-1.68-1.59-3.23-3.23-4.78-4.8l-8.7-9-14.08-14.81L203.07,175l-2.42-2.5-.62-.65c-.13-.15-.2-.22-.2-.23l.23.2.64.63,2.48,2.45c2.16,2.16,5.29,5.35,9.23,9.43L226.56,199l8.73,9c1.55,1.56,3.11,3.2,4.79,4.79l5.23,4.75.1.09,0,.12c-.37,2-.78,4.09-1.33,6.16s-1.33,4.1-2,6.21c-1.38,4.19-2.78,8.52-4.15,13-2.74,8.93-5.38,18.38-7.55,28.24-3.55,16.2-5.39,32-4.75,46.41.06,3.6.47,7.08.76,10.47.52,3.37.87,6.65,1.56,9.79,1.23,6.28,2.37,12.14,3.42,17.48,2.06,10.68,3.74,19.33,4.9,25.33.57,3,1,5.29,1.31,6.89.14.77.25,1.37.33,1.79S238,390.12,238,390.12Z" style="fill:#263238"></path><path d="M144.86,183.07s-7.74,0-17,7.49c-7.06,5.7-48.39,80.34-55.58,96.21-5.63,12.44-.83,33.81,10.54,35.56,6.7,1,20.55,3.77,30.79,5.83,7.08,1.42,18.23-7.86,20.2-14.81l-2.94.67,13.28-38.43-18.2.54,17-23.45-1.68-40Z" style="fill:#e0e0e0"></path><path d="M100,288.07a4.67,4.67,0,0,1,.64-.9,24.17,24.17,0,0,1,2-2.22,33,33,0,0,1,17.26-9.05,23.94,23.94,0,0,1,3-.37,4.22,4.22,0,0,1,1.1,0c0,.09-1.54.21-4,.74a37.19,37.19,0,0,0-9.14,3.33,36.8,36.8,0,0,0-7.94,5.62C101.06,286.92,100.08,288.13,100,288.07Z" style="fill:#263238"></path><path d="M106.31,275.58a11.66,11.66,0,0,1,2.85-.68,41.39,41.39,0,0,1,7.06-.44,59.89,59.89,0,0,1,7,.55,13.71,13.71,0,0,1,2.87.57,19.06,19.06,0,0,1-2.91-.2c-1.79-.16-4.27-.35-7-.4a58.08,58.08,0,0,0-7,.29A27.57,27.57,0,0,1,106.31,275.58Z" style="fill:#263238"></path><path d="M144.15,275.59a7.45,7.45,0,0,1-1.34.08l-3.73.07-13,.09h-.53l.35-.41c1.7-2,3.49-4.25,5.31-6.62,4.44-5.81,8.34-11.18,11.33-14.94,1.48-1.89,2.73-3.38,3.61-4.4l1-1.15c.24-.26.37-.39.39-.38a2.33,2.33,0,0,1-.31.45l-1,1.21c-.82,1.06-2,2.58-3.47,4.49-2.91,3.82-6.76,9.21-11.21,15-1.82,2.37-3.62,4.62-5.35,6.62l-.19-.41,13,.1,3.73.08A7.45,7.45,0,0,1,144.15,275.59Z" style="fill:#263238"></path><path d="M152.46,232.88a17.31,17.31,0,0,1,.95-1.63,39.64,39.64,0,0,0,2.35-4.56,37.75,37.75,0,0,0-1-32.61,39.78,39.78,0,0,0-2.6-4.4,14.69,14.69,0,0,1-1.05-1.57,2,2,0,0,1,.34.35c.2.25.51.6.87,1.1a33.84,33.84,0,0,1,2.77,4.35,36.76,36.76,0,0,1,1,32.93,33.65,33.65,0,0,1-2.5,4.52c-.33.51-.63.88-.81,1.14S152.48,232.89,152.46,232.88Z" style="fill:#263238"></path><path d="M233,323.75c-3.36,2.7-9.17,1.68-11.88-1.68a7.82,7.82,0,0,1,1.18-11c3.36-2.7,9-1.76,11.69,1.6A7.89,7.89,0,0,1,233,323.75Z" style="fill:#0187A7"></path><path d="M234.37,317.56c-.59.31-1.55-.37-2.14-1.51s-.58-2.32,0-2.62,1.55.37,2.14,1.51S235,317.26,234.37,317.56Z" style="fill:#fff"></path><g style="opacity:0.2"><path d="M229.72,321.67c-2.93-.43-6.84-11-6.72-11.07q-.36.22-.69.48a7.82,7.82,0,0,0-1.18,11c2.71,3.36,8.52,4.38,11.88,1.68a7.42,7.42,0,0,0,2.36-3.35A9.91,9.91,0,0,1,229.72,321.67Z" style="fill:#fff"></path></g><g style="opacity:0.30000000000000004"><path d="M227.32,311.41a4.28,4.28,0,0,1,1.67,1.51,9.35,9.35,0,0,1,2.3-.79S229,310.38,227.32,311.41Z"></path></g><path d="M238.44,293a12.78,12.78,0,0,0-7.56,8,33.64,33.64,0,0,0-1.89,11.9l.42-.19s.18-10,4-14.13,6.07-4.29,6.07-4.29Z" style="fill:#263238"></path><path d="M132.57,279.53s33.35-9.42,44.55-11.8,36.42-1.17,38.8-.79c1.78.29,15.53,17.22,15.53,17.22s7.37,14.51,6,17.25-4.57,2-4.57,2,1.64,6.09-1.57,6.65c-4.56.79-7.07-4.62-7.07-4.62s-6.66.79-9.09-1.46-.95-1.59-.95-1.59-3.72,2.83-6.72.46a61.81,61.81,0,0,1-6.81-6.87l-4.28-1.24s-17.32.12-22.92-3.13c0,0-35.36,20.42-44.44,23.87s-13,2.41-13,2.41-7.61-1.93-.36-17.27S132.57,279.53,132.57,279.53Z" style="fill:#ae7461"></path><path d="M198.13,286.62s.31.08.83.33a20,20,0,0,1,2.14,1.16,32.49,32.49,0,0,1,11.16,11.39,23.38,23.38,0,0,1,1.12,2.16,2.8,2.8,0,0,1,.31.84c-.07,0-.65-1.09-1.74-2.81a37.74,37.74,0,0,0-11-11.27C199.21,287.29,198.09,286.69,198.13,286.62Z" style="fill:#6f4439"></path><path d="M203.67,280.85a3.87,3.87,0,0,1,1.3.15,10.2,10.2,0,0,1,3.27,1.41,16.71,16.71,0,0,1,3.9,3.57,62.57,62.57,0,0,1,3.71,5.27c2.46,3.85,4.44,7.47,6,10l1.8,3a5.84,5.84,0,0,1,.62,1.14,6.3,6.3,0,0,1-.79-1c-.48-.69-1.15-1.69-1.95-3-1.6-2.52-3.63-6.11-6.08-9.94-1.24-1.9-2.43-3.72-3.65-5.24a16.85,16.85,0,0,0-3.72-3.57A12.7,12.7,0,0,0,203.67,280.85Z" style="fill:#6f4439"></path><path d="M214.82,276.62s.12,0,.31.13a5.7,5.7,0,0,1,.81.51,14.34,14.34,0,0,1,2.53,2.43,38.09,38.09,0,0,1,3,4.24c1,1.68,2.12,3.5,3.28,5.42,2.34,3.83,4.45,7.32,5.94,9.85l1.76,3a6.39,6.39,0,0,1,.58,1.14,6.06,6.06,0,0,1-.76-1l-1.89-2.93c-1.58-2.49-3.73-5.94-6.08-9.78-1.19-1.91-2.23-3.78-3.24-5.44a41.31,41.31,0,0,0-2.89-4.25,16.53,16.53,0,0,0-2.37-2.51C215.19,276.89,214.79,276.66,214.82,276.62Z" style="fill:#6f4439"></path><path d="M283.4,324.4c0,.09-1.71,0-4.45,0a57.42,57.42,0,0,0-20.88,4.05c-2.55,1-4.07,1.77-4.11,1.69a4.82,4.82,0,0,1,1-.62c.68-.38,1.68-.86,3-1.41a49.61,49.61,0,0,1,10.29-3.17A50.57,50.57,0,0,1,279,324c1.38,0,2.5.11,3.26.21A5.21,5.21,0,0,1,283.4,324.4Z" style="fill:#263238"></path><path d="M277.08,320.85a12.83,12.83,0,0,1-2.71.38c-1.68.15-4,.29-6.59.34s-4.9,0-6.59-.08a13.5,13.5,0,0,1-2.72-.27,15,15,0,0,1,2.73-.1c1.68,0,4,0,6.57-.07s4.89-.13,6.57-.19A16,16,0,0,1,277.08,320.85Z" style="fill:#263238"></path><path d="M270.6,261.67a63.63,63.63,0,0,1-6.75,4.56,60.89,60.89,0,0,1-7,4.12,66.3,66.3,0,0,1,6.75-4.56A64.83,64.83,0,0,1,270.6,261.67Z" style="fill:#263238"></path><path d="M238,221.59a5,5,0,1,1-5-5A5,5,0,0,1,238,221.59Z" style="fill:#263238"></path><circle cx="222.16" cy="258.42" r="5.04" style="fill:#263238"></circle><path d="M236.72,233.68a5.48,5.48,0,0,1-.76-.16,21.71,21.71,0,0,1-2.12-.58,35.93,35.93,0,0,1-7.41-3.32,51.49,51.49,0,0,1-9.57-7.29,85,85,0,0,1-9.65-11.13l-16-21.43c-2-2.75-3.67-5-4.77-6.55a15.42,15.42,0,0,1-1.62-2.49l1.78,2.37,4.9,6.45c4.13,5.44,9.87,12.95,16.08,21.35A88.6,88.6,0,0,0,217.19,222a52.34,52.34,0,0,0,9.43,7.33,39.12,39.12,0,0,0,7.28,3.44c.89.34,1.62.5,2.09.67A4,4,0,0,1,236.72,233.68Z" style="fill:#263238"></path><g style="opacity:0.30000000000000004"><path d="M144.86,338.18l38.43,4.35S156,347.49,144.86,338.18Z"></path></g></g><g id="freepik--Cake--inject-282"><path d="M244.29,433.39c-8.56-2.11-8.8-9.5-8.8-9.5V413.8H218.66v10.09s-.23,7.39-8.79,9.5-19.12.94-19.82,11.26v2c0,3.46,16.58,6.27,37,6.27s37-2.81,37-6.27v-2C263.41,434.33,252.85,435.5,244.29,433.39Z" style="fill:#455a64"></path><g style="opacity:0.2"><path d="M262.45,439.5c-3.43-4.82-11.41-4.45-18.16-6.11-6.1-1.5-8-5.68-8.54-8l-17.34,0c-.56,2.27-2.41,6.48-8.54,8-5.89,1.45-12.72,1.35-16.65,4.5A97.89,97.89,0,0,0,262.45,439.5Z"></path></g><path d="M264.11,445.18a3.68,3.68,0,0,1-.71.27l-2.08.68A32.77,32.77,0,0,1,258,447l-2.1.52-2.38.45c-.84.15-1.71.33-2.62.47l-2.86.39c-2,.31-4.11.45-6.34.68-4.48.31-9.41.55-14.59.46a173.65,173.65,0,0,1-26.4-2.24c-3.34-.56-6-1.15-7.86-1.62l-2.11-.58a3.83,3.83,0,0,1-.73-.23,4.09,4.09,0,0,1,.76.13l2.12.49c1.85.4,4.54.94,7.88,1.45a190.18,190.18,0,0,0,26.35,2.08c5.16.09,10.08-.14,14.54-.42,2.23-.22,4.35-.33,6.32-.62l2.86-.37c.91-.13,1.78-.3,2.61-.44l2.38-.41,2.1-.47c1.31-.29,2.44-.54,3.35-.82l2.1-.59A3.76,3.76,0,0,1,264.11,445.18Z" style="fill:#263238"></path><ellipse cx="227.38" cy="416.36" rx="64.46" ry="14.34" style="fill:#455a64"></ellipse><path d="M167,414.91s0,.12.06.33,0,.25.07.4.12.33.19.53a7,7,0,0,0,2.49,2.7c2.68,1.86,7.15,3.53,12.81,4.91,11.33,2.75,27.46,4.41,45.26,4.42s33.94-1.67,45.28-4.42c5.65-1.38,10.13-3,12.81-4.91a6.93,6.93,0,0,0,2.48-2.7c.08-.2.14-.37.2-.53s0-.29.07-.4a1.64,1.64,0,0,1,.06-.33,2.18,2.18,0,0,1,0,.34,2.38,2.38,0,0,1,0,.41l-.17.55a6.89,6.89,0,0,1-2.47,2.82c-2.68,1.94-7.17,3.68-12.83,5.11-11.36,2.85-27.53,4.57-45.37,4.58s-34-1.73-45.35-4.58c-5.67-1.43-10.16-3.17-12.84-5.1a7,7,0,0,1-2.47-2.83l-.17-.55a3.73,3.73,0,0,1,0-.41A1.26,1.26,0,0,1,167,414.91Z" style="fill:#263238"></path><rect x="175.19" y="361.02" width="105.1" height="55.31" style="fill:#ffbf9d"></rect><path d="M280.42,393.89c0,4.94-23.52,8.95-52.55,8.95s-52.55-4-52.55-8.95v-7.8c0,4.94,23.53,9,52.55,9s52.55-4,52.55-9Z" style="fill:#ff9a6c"></path><ellipse cx="227.87" cy="416.37" rx="52.55" ry="8.95" style="fill:#ffbf9d"></ellipse><g style="opacity:0.2"><path d="M279.72,378c-.56,3.21-1.2,6.59-3.42,9.08s-6.56,3.61-9.14,1.44c-2.25-1.89-2.71-5.73-5.65-6.37-2.52-.55-4.64,1.85-5.68,4.09s-2,4.9-4.43,5.78c-3.11,1.13-6.49-1.47-9.79-1-2.5.33-4.32,2.29-6.19,3.88s-4.55,3-6.8,1.91c-2.71-1.26-3.36-5.39-6.34-5.78-3.17-.4-5.92,4-8.76,2.65-2.41-1.18-2-5.61-4.64-5.92-2.12-.25-3,2.4-4.58,3.81a4.76,4.76,0,0,1-5.74.35c-1-.73-1.78-1.9-3-2.11-1.93-.32-3.26,1.83-3.58,3.66s-.45,4-2.09,5-3.63.31-4.86-.92a10.66,10.66,0,0,1-2.3-4.53l-2.7-8.43a3.81,3.81,0,0,1-5.66-.87l.73-7.94Z"></path></g><path d="M282.8,358.23c-2.31-3.56-6.6-5.62-19.18-6.64l-73.72,0c-6.33-.18-12.65,2.79-15.92,7.48a18.73,18.73,0,0,0-3.08,10,54,54,0,0,0,.87,10.36A7.17,7.17,0,0,0,173,383a3.39,3.39,0,0,0,3.75,1.13,5.92,5.92,0,0,0,1.95-1.84,2.69,2.69,0,0,1,2.44-1.08c1,.23,1.44,1.3,1.65,2.2a74.93,74.93,0,0,1,1.71,10.49,7.85,7.85,0,0,0,.69,3.06,3,3,0,0,0,5.38,0,7.89,7.89,0,0,0,.76-2.85,46.55,46.55,0,0,1,1-4.94,5.68,5.68,0,0,1,1-2.32,2.77,2.77,0,0,1,2.49-1c2.57.48,2,4.56,4.53,5.21a3,3,0,0,0,2.59-.72,6.76,6.76,0,0,0,1.47-2.1c1-1.82,2.75-8.14,6.32-5.44a5.29,5.29,0,0,1,1.73,3.33,7.46,7.46,0,0,0,1.32,3.51,3.09,3.09,0,0,0,3.75.79c.93-.62,1.15-1.86,2.19-2.33a2.57,2.57,0,0,1,2.85.85,7,7,0,0,1,1.08,2.67,9.42,9.42,0,0,0,3.52,5.35,6.58,6.58,0,0,0,6.74.5,6.82,6.82,0,0,0,2.77-4.26,13.2,13.2,0,0,1,1.84-4.71,4.5,4.5,0,0,1,4.95-1.63c1.7.69,2.29,2.58,3.83,3.51,2,1.19,4.82.36,6.5-1.14s2.58-3.49,3.87-5.25,3.27-3.42,5.68-3.43c2.82,0,4.95,2.14,6.53,4.16s3.39,4.29,6.17,4.71a7,7,0,0,0,6.81-3.54c1.27-2.2,1.39-4.75,1.5-7.2l.37-8.72C285,366,285.08,361.74,282.8,358.23Z" style="fill:#0187A7"></path><path d="M280.71,356.16c1.86,3.41-25.08,5-51.79,5s-48.36-2.86-48.36-6.38,21.65-6.38,48.36-6.38S277.87,350.93,280.71,356.16Z" style="fill:#0187A7"></path><g style="opacity:0.30000000000000004"><path d="M174.93,409.77c6.7,6,16.28,7.52,25.29,8.38A279.23,279.23,0,0,0,264.57,417a33.27,33.27,0,0,0,8.4-2,11.83,11.83,0,0,0,6.26-5.6Z"></path></g><path d="M280.42,408.41c0,4.94-23.52,8.95-52.55,8.95s-52.55-4-52.55-8.95v-7.8c0,4.95,23.53,8.95,52.55,8.95s52.55-4,52.55-8.95Z" style="fill:#ffd6c6"></path><g style="opacity:0.30000000000000004"><path d="M186.39,417.81c-.24-.68-1.18-.84-1.88-.65a1.14,1.14,0,0,0-.85.68,1.27,1.27,0,0,0,.06,1.09,1.51,1.51,0,0,0,1.86.67A1.48,1.48,0,0,0,186.39,417.81Z"></path></g><g style="opacity:0.30000000000000004"><path d="M262.94,419.09c-.23-.68-1.17-.84-1.87-.65a1.15,1.15,0,0,0-.86.68,1.34,1.34,0,0,0,.06,1.09,1.52,1.52,0,0,0,1.87.67A1.48,1.48,0,0,0,262.94,419.09Z"></path></g><g style="opacity:0.30000000000000004"><path d="M250.36,406.1c-.28-.53-1.41-.66-2.26-.51a1.42,1.42,0,0,0-1,.53.73.73,0,0,0,.07.85,2.38,2.38,0,0,0,2.25.52C250.2,407.27,250.65,406.63,250.36,406.1Z"></path></g><g style="opacity:0.30000000000000004"><path d="M216.72,404.71a1.77,1.77,0,0,0-.19,2.36,1.38,1.38,0,0,0,1.09.75,1.7,1.7,0,0,0,1.3-.41,1.76,1.76,0,0,0,.22-2.36A1.91,1.91,0,0,0,216.72,404.71Z"></path></g><g style="opacity:0.30000000000000004"><path d="M264.31,402.89c-.12-.33-.59-.41-.94-.32a.56.56,0,0,0-.42.34.64.64,0,0,0,0,.54.77.77,0,0,0,.94.34A.75.75,0,0,0,264.31,402.89Z"></path></g><g style="opacity:0.30000000000000004"><path d="M235.16,406.26c-.12-.34-.59-.42-.94-.33a.6.6,0,0,0-.43.34.7.7,0,0,0,0,.55.77.77,0,0,0,.94.33A.74.74,0,0,0,235.16,406.26Z"></path></g><g style="opacity:0.30000000000000004"><path d="M211.78,421.37c-.12-.34-.59-.42-.94-.33a.56.56,0,0,0-.42.34.63.63,0,0,0,0,.55.75.75,0,0,0,.93.33A.74.74,0,0,0,211.78,421.37Z"></path></g><g style="opacity:0.30000000000000004"><path d="M197.07,403.88c-.12-.34-.59-.42-.94-.33a.6.6,0,0,0-.43.34.7.7,0,0,0,0,.55.77.77,0,0,0,.94.33A.74.74,0,0,0,197.07,403.88Z"></path></g><g style="opacity:0.30000000000000004"><path d="M237.61,405.31c-.06-.17-.29-.21-.47-.16a.26.26,0,0,0-.21.17.32.32,0,0,0,0,.27.38.38,0,0,0,.47.17A.37.37,0,0,0,237.61,405.31Z"></path></g><g style="opacity:0.30000000000000004"><path d="M223,407.13c-.06-.17-.29-.21-.47-.17a.33.33,0,0,0-.21.17.34.34,0,0,0,0,.28.38.38,0,0,0,.47.16A.36.36,0,0,0,223,407.13Z"></path></g><g style="opacity:0.30000000000000004"><path d="M274.11,417.92c-.06-.17-.29-.21-.47-.16a.28.28,0,0,0-.21.17.32.32,0,0,0,0,.27.39.39,0,0,0,.47.17A.37.37,0,0,0,274.11,417.92Z"></path></g><g style="opacity:0.30000000000000004"><path d="M241.11,421.48c-.06-.17-.3-.21-.47-.16a.28.28,0,0,0-.22.17.32.32,0,0,0,0,.27.37.37,0,0,0,.46.17A.39.39,0,0,0,241.11,421.48Z"></path></g><g style="opacity:0.4"><ellipse cx="228.13" cy="357.35" rx="47.31" ry="6.24" style="fill:#fff"></ellipse><path d="M236.38,367.25a7,7,0,0,1-2,.27c-1.29.1-3.17.19-5.49.26-4.64.13-11.07.13-18.14-.32a153.24,153.24,0,0,1-18-2.11l-1.63-.3-1.45-.31c-.9-.19-1.68-.36-2.3-.53a6.92,6.92,0,0,1-1.93-.62c0-.16,2.85.35,7.43,1s10.93,1.35,18,1.78,13.43.57,18.06.64S236.37,367.09,236.38,367.25Z" style="fill:#fff"></path><path d="M248.66,366.73c0,.3-1.75.63-3.94.73s-4-.06-4-.37,1.75-.63,3.95-.73S248.64,366.42,248.66,366.73Z" style="fill:#fff"></path><path d="M172.22,372.1a18,18,0,0,0,1.56,9.34,2.71,2.71,0,0,0,2.18,1.08,1.83,1.83,0,0,0,1.39-1,10.79,10.79,0,0,0,1-2.07c.2-.59.26-1.35-.38-1.66a5.62,5.62,0,0,0-1.26-.22,2.71,2.71,0,0,1-1.69-1.66c-.57-1.16-1.15-2.31-1.73-3.47a.91.91,0,0,0-.43-.5c-.22-.11-.58,0-.61.18" style="fill:#fff"></path><path d="M233.44,395.26c-.17-.56-.94-.84-1.64-.9a13.37,13.37,0,0,1-2.11-.12,3.15,3.15,0,0,1-1.74-1.19,9.67,9.67,0,0,1-1-1.72,2.57,2.57,0,0,0-.91-1.14h0c-.71-.4-1.63.24-1.29.9a15.5,15.5,0,0,0,3,3.95,6.54,6.54,0,0,0,2.23,1.54,3.42,3.42,0,0,0,2.82-.11A1.12,1.12,0,0,0,233.44,395.26Z" style="fill:#fff"></path><path d="M235.58,391.36a1.17,1.17,0,0,0-.91-.45,1.54,1.54,0,0,0-1.4.8,1.35,1.35,0,0,0,.08,1.43,1.29,1.29,0,0,0,.72.52,1.42,1.42,0,0,0,1.3-.37,1.64,1.64,0,0,0,.43-1.12A1.31,1.31,0,0,0,235.58,391.36Z" style="fill:#fff"></path></g><path d="M224.5,429.08a1.43,1.43,0,0,0-.58-.11l-6.53-.27c-.6-.05-1.07,0-1.24.17s-.2.45,0,.62a1.17,1.17,0,0,0,.68.24A35.66,35.66,0,0,0,224,430c.31,0,.71-.11.76-.42A.49.49,0,0,0,224.5,429.08Z" style="fill:#fff"></path><path d="M246.41,357.52a7.13,7.13,0,0,0-6.4-8.65,7.91,7.91,0,0,0-2.91-9.37c-1.13-.73-2.45-1.16-3.54-2a3.4,3.4,0,0,1-1.56-3.48c.38-1.24,1.82-2.09,1.54-3.48a2,2,0,0,0-1.29-1.45,4.77,4.77,0,0,0-3.44.27,17.12,17.12,0,0,0-7.48,4.81,9.93,9.93,0,0,0-2.39,8.35,6.1,6.1,0,0,0-6.42,6.9,3.77,3.77,0,0,0-3,2.21,5,5,0,0,0-.37,1.38,6.7,6.7,0,0,0,2.63,6.13c2.36,1.81,6.83,3.84,14.89,3.59C240.88,362.34,246.41,357.52,246.41,357.52Z" style="fill:#0187A7"></path><g style="opacity:0.9"><path d="M246.41,357.52a7.13,7.13,0,0,0-6.4-8.65,7.91,7.91,0,0,0-2.91-9.37c-1.13-.73-2.45-1.16-3.54-2a3.4,3.4,0,0,1-1.56-3.48c.38-1.24,1.82-2.09,1.54-3.48a2,2,0,0,0-1.29-1.45,4.77,4.77,0,0,0-3.44.27,17.12,17.12,0,0,0-7.48,4.81,9.93,9.93,0,0,0-2.39,8.35,6.1,6.1,0,0,0-6.42,6.9,3.77,3.77,0,0,0-3,2.21,5,5,0,0,0-.37,1.38,6.7,6.7,0,0,0,2.63,6.13c2.36,1.81,6.83,3.84,14.89,3.59C240.88,362.34,246.41,357.52,246.41,357.52Z" style="fill:#fff"></path></g><g style="opacity:0.1"><path d="M218.94,342.56c-.53,2.7,1.84,5.77,4.36,7.19s5.55,1.56,8.45,1.51,5.85-.24,8.62.62,5.71,2.77,6,5.64c-1.94-1.69-4.87-2.23-7.43-2.5a46.05,46.05,0,0,0-7.7.09,25.63,25.63,0,0,1-7.45-.72,9.26,9.26,0,0,1-6-3.73,8.05,8.05,0,0,1-.23-8A3.78,3.78,0,0,1,218.94,342.56Z" style="fill:#0187A7"></path></g><g style="opacity:0.1"><path d="M235.88,345.32c-3.83-.92-5.87-1.56-7.57-3.61a5.82,5.82,0,0,1-.82-5.27,15,15,0,0,1,2.72-4.8,11.51,11.51,0,0,0-6.09,8.1,6.85,6.85,0,0,0,.39,4.2c1.07,2.22,3.28,2.93,5.7,3.39,4.26.82,8.49-.42,10,1.54h0C240.19,346.92,237.77,345.78,235.88,345.32Z" style="fill:#0187A7"></path></g><g style="opacity:0.1"><path d="M234.66,357.93c-2.18-.1-4.35.2-6.52.29a20.17,20.17,0,0,1-9.51-1.61,10.86,10.86,0,0,1-6.11-7.14l-.68.14c-.66,3.42.66,6.13,3.24,8.46a13.59,13.59,0,0,0,9.62,3.29c3.32-.12,6.59-.83,9.92-.9a6.37,6.37,0,0,1,3.37.84l3.14-1A12,12,0,0,0,234.66,357.93Z" style="fill:#0187A7"></path></g><path d="M220.68,360.21c.57-.86-1.58-3.45-3-2.37-1.16.92-2.87,2.59-1.38,3S220.3,360.79,220.68,360.21Z" style="fill:#ae7461"></path><path d="M196.86,357.24c.43-.66-1.2-2.62-2.24-1.8-.88.7-2.18,2-1.05,2.31S196.57,357.68,196.86,357.24Z" style="fill:#ae7461"></path><path d="M224.78,359.79a1.38,1.38,0,0,0-1.35-.2,1.56,1.56,0,0,0-.92.78,1,1,0,0,0,.62,1.14,2.55,2.55,0,0,0,1.4.11,1.1,1.1,0,0,0,.47-.13.75.75,0,0,0,.27-.49A1.26,1.26,0,0,0,224.78,359.79Z" style="fill:#ae7461"></path><path d="M257.87,356.38a1.32,1.32,0,0,0-1.29-.2,1.52,1.52,0,0,0-.89.75,1,1,0,0,0,.59,1.1,2.6,2.6,0,0,0,1.36.11,1.12,1.12,0,0,0,.44-.13.69.69,0,0,0,.27-.47A1.19,1.19,0,0,0,257.87,356.38Z" style="fill:#ae7461"></path><path d="M222.48,358.08a.89.89,0,0,0-.78.42,1,1,0,0,0-.15.77.66.66,0,0,0,.78.34,1.75,1.75,0,0,0,.77-.49.76.76,0,0,0,.18-.26.5.5,0,0,0-.05-.36A.86.86,0,0,0,222.48,358.08Z" style="fill:#ae7461"></path><path d="M251,429.43a1.48,1.48,0,0,1-.49.09l-1.42.15c-1.23.12-3,.26-5.23.41-4.42.29-10.54.56-17.3.57s-12.89-.3-17.31-.65c-2.21-.17-4-.34-5.22-.49l-1.42-.17a1.87,1.87,0,0,1-.49-.1,1.73,1.73,0,0,1,.5,0l1.42.08,5.24.33c4.41.25,10.52.48,17.28.48s12.86-.21,17.28-.41l5.24-.24,1.42-.06A1.91,1.91,0,0,1,251,429.43Z" style="fill:#263238"></path><path d="M175.19,417.61c-.15,0-.26-7.5-.26-16.74s.11-16.74.26-16.74.26,7.49.26,16.74S175.33,417.61,175.19,417.61Z" style="fill:#263238"></path><path d="M280.42,417c-.14,0-.26-6.35-.26-14.17s.12-14.16.26-14.16.26,6.34.26,14.16S280.57,417,280.42,417Z" style="fill:#263238"></path></g><g id="freepik--Mixer--inject-282"><path d="M453.38,230.9a18,18,0,0,0-10.72-11.8,35.24,35.24,0,0,0-9.19-1.74l.69,37.19c5.51-.26,13-3.51,16.29-8A18.47,18.47,0,0,0,453.38,230.9Z" style="fill:#263238"></path><path d="M336,270.48s-8.14,65.07,40.39,62.43V270.48Z" style="fill:#e0e0e0"></path><path d="M350.12,323.74c-16.82-3.63-23-11.5-25-17.32s-2.15-12.08-2.24-18.22c0-2.87.07-6.09,2.18-8.1a7.51,7.51,0,0,1,5.27-1.8,22.14,22.14,0,0,1,5.62,1.06s5.12,3.5,4.56,3.87-3.14,6.41-3.14,6.41a11.61,11.61,0,0,0-3.24-3.59,4.14,4.14,0,0,0-4.63-.07c-1.27,1-1.46,2.79-1.49,4.38a54.71,54.71,0,0,0,.28,6.65c.41,4,1.31,8.17,3.8,11.43a18.21,18.21,0,0,0,8,5.68,39,39,0,0,0,9.76,2.13Z" style="fill:#e0e0e0"></path><path d="M400.91,270.48s8.14,65.07-40.4,62.43V270.48Z" style="fill:#e0e0e0"></path><rect x="360.04" y="330.22" width="17.18" height="3.4" style="fill:#e0e0e0"></rect><path d="M347.12,255.63V238.69a22.14,22.14,0,0,1,22.14-22.14h64.55a1,1,0,0,1,1,1v38.59a1,1,0,0,1-.36.78c-1.15,1-4.59,4.27-3.85,8.34.89,4.87,10.63,59.79,15.06,65.77,4.23,5.71,8.87,4.35,9.47,11.74a1,1,0,0,1-1,1.11H336.74a1,1,0,0,1-1-1c-.12-2.44.55-8.73,10.52-9.44,12.4-.89,40.52-1.11,50.49-6.87S409.35,301.81,410,295c.44-4.53.1-19.68-.17-29.45a8.93,8.93,0,0,0-8.9-8.67l-52.82-.19A1,1,0,0,1,347.12,255.63Z" style="fill:#0187A7"></path><path d="M434.62,243.78a.6.6,0,0,1-.23,0l-.68,0-2.63,0H421.4c-8.17,0-19.44-.05-31.91-.19-6.22-.12-12.31-.79-17.25-3.21a27.57,27.57,0,0,1-6.33-4.37c-1.81-1.59-3.45-3.11-5.07-4.33a15.4,15.4,0,0,0-8.75-3.51,10.59,10.59,0,0,0-3.47.53.72.72,0,0,1,.21-.11c.15,0,.36-.15.65-.24a8.91,8.91,0,0,1,2.61-.39,15.45,15.45,0,0,1,9,3.42c1.66,1.22,3.31,2.74,5.13,4.3a27.5,27.5,0,0,0,6.26,4.27c4.85,2.35,10.86,3,17.05,3.12l31.91.34,9.67.16,2.63.07.68,0C434.55,243.76,434.62,243.77,434.62,243.78Z" style="fill:#263238"></path><circle cx="409.02" cy="232.6" r="3.23" style="fill:#263238"></circle><path d="M435.15,250.84c0,.14-19.7.26-44,.26s-44-.12-44-.26,19.71-.26,44-.26S435.15,250.7,435.15,250.84Z" style="fill:#263238"></path><path d="M379.21,262.23h-25a5.59,5.59,0,0,1-5.59-5.59H384.8A5.59,5.59,0,0,1,379.21,262.23Z" style="fill:#455a64"></path><rect x="365.61" y="270.42" width="3.28" height="3.28" style="fill:#263238"></rect><path d="M367.25,271.16h0a5.11,5.11,0,0,1-5.11-5.11v-1.4h10.22v1.4A5.11,5.11,0,0,1,367.25,271.16Z" style="fill:#455a64"></path><path d="M377,265.39h-20.1a3.15,3.15,0,0,1-3.16-3.16h26.42A3.16,3.16,0,0,1,377,265.39Z" style="fill:#455a64"></path><rect x="362.34" y="272.05" width="10.08" height="6.75" style="fill:#455a64"></rect><path d="M364.23,326.73c-4.85,0-16.54-18.27-18.91-22.07-2.58-4.12,2.53-12.65,15.63-26.09.49-.5.91-.94,1-1l.81.6c-.09.12-.35.39-1.08,1.13-15.63,16-17.05,22.37-15.49,24.86,6.69,10.71,15.07,21.62,18,21.62a1,1,0,0,0,.31-.05c3.67-1.28,15.23-13.79,15.36-21.31s-9.21-26.14-9.31-26.32l.9-.46c.39.77,9.55,18.9,9.41,26.8s-12.09,20.86-16,22.23A1.61,1.61,0,0,1,364.23,326.73Z" style="fill:#455a64"></path><path d="M370.69,326.75c-5.69,0-14.43-15-17-21.18-1.76-4.2,1.42-13.1,9.46-26.44.25-.43.42-.7.46-.78l.93.36a7.06,7.06,0,0,1-.54.94c-10.31,17.11-10.31,23.35-9.39,25.54,3.15,7.49,11.71,21,16.29,20.55,4.83-.46,16.81-20.06,17.46-24.37.53-3.61-11.59-18-16.3-23.19l.74-.67c1.77,2,17.25,19.28,16.54,24-.73,4.94-13,24.7-18.34,25.22Z" style="fill:#455a64"></path><path d="M368.11,324.19l-.21,0c-1.54-.43-5.07-8.41-7.08-15-2.49-8.21,5.06-30.55,5.38-31.5l.95.32c-.08.23-7.77,23-5.37,30.89,2.19,7.21,5.11,13,6.19,14.15.31-1.34.64-7.05.9-11.7.23-4,.47-8.12.75-10.63.67-6.08-.69-22.66-.7-22.83l1-.08c.06.68,1.39,16.84.7,23-.27,2.49-.51,6.6-.74,10.58-.53,9.34-.77,12.13-1.3,12.61A.67.67,0,0,1,368.11,324.19Z" style="fill:#455a64"></path><path d="M430.46,266.58c0,.08-1.09-.56-2.91-1.26a21.93,21.93,0,0,0-3.27-1,23,23,0,0,0-4.15-.47,23.66,23.66,0,0,0-4.16.32,22.19,22.19,0,0,0-3.31.86c-1.84.64-2.9,1.25-3,1.16s.24-.2.71-.48a13.54,13.54,0,0,1,2.11-1,19.28,19.28,0,0,1,3.35-1,22.65,22.65,0,0,1,4.26-.38,21.93,21.93,0,0,1,4.24.53,18.83,18.83,0,0,1,3.31,1.1,14,14,0,0,1,2.08,1.09C430.23,266.37,430.48,266.55,430.46,266.58Z" style="fill:#263238"></path><path d="M423.43,277.77a2.45,2.45,0,1,1-2.45-2.45A2.45,2.45,0,0,1,423.43,277.77Z" style="fill:#263238"></path><path d="M431.26,257.33a2.21,2.21,0,1,1-2.21-2.2A2.21,2.21,0,0,1,431.26,257.33Z" style="fill:#263238"></path><path d="M380.56,262.23c0,.15-6.11.26-13.66.26s-13.66-.11-13.66-.26,6.12-.26,13.66-.26S380.56,262.09,380.56,262.23Z" style="fill:#263238"></path><path d="M377.72,265.35a103.21,103.21,0,0,1-10.47.26,103.37,103.37,0,0,1-10.47-.26c0-.14,4.69-.26,10.47-.26S377.72,265.21,377.72,265.35Z" style="fill:#263238"></path><path d="M472.31,390.91s0-.29,0-.85,0-1.39,0-2.46c0-2.19,0-5.37-.06-9.45,0-8.19-.05-20-.09-34.35l.21.2-74.33.06L323.64,344l.2-.2c0,14.39-.06,26.16-.09,34.35,0,4.08,0,7.26-.05,9.45q0,1.61,0,2.46c0,.56,0,.85,0,.85s0-.29,0-.85,0-1.39,0-2.46c0-2.19,0-5.37-.06-9.45,0-8.19,0-20-.09-34.35v-.21h.21l74.34-.06,74.33.06h.2v.21c0,14.38-.07,26.16-.09,34.35,0,4.08,0,7.26-.05,9.45q0,1.61,0,2.46C472.33,390.62,472.31,390.91,472.31,390.91Z" style="fill:#263238"></path></g><g id="freepik--Cherries--inject-282"><path d="M186.05,459.66c.32,4.07-3.6,8.07-7.67,8.39a7.41,7.41,0,0,1-8-6.81c-.31-4.08,3.43-8,7.51-8.28A7.46,7.46,0,0,1,186.05,459.66Z" style="fill:#0187A7"></path><path d="M182,455.28c-.08.63-1.13,1-2.33.86s-2.13-.78-2.05-1.41,1.13-1,2.33-.86S182,454.66,182,455.28Z" style="fill:#fff"></path><g style="opacity:0.2"><path d="M182.67,461.12c-1.91,2.06-12.24-.53-12.26-.68a7.15,7.15,0,0,0,0,.8,7.41,7.41,0,0,0,8,6.81c4.07-.32,8-4.32,7.67-8.39A7,7,0,0,0,184.7,456,9.39,9.39,0,0,1,182.67,461.12Z" style="fill:#fff"></path></g><g style="opacity:0.30000000000000004"><path d="M173.36,457.49a4.14,4.14,0,0,1,2.07-.49,8.9,8.9,0,0,1,.62-2.22S173.47,455.6,173.36,457.49Z"></path></g><path d="M165,439a12.1,12.1,0,0,0,2.18,10.18,32.12,32.12,0,0,0,8.29,7.85l.08-.43s-7.7-5.49-8.91-10.68-.11-7-.11-7Z" style="fill:#455a64"></path><path d="M133.62,464.86c-3.73,1.67-8.82-.66-10.5-4.39a7.41,7.41,0,0,1,3.72-9.79c3.73-1.68,8.66.54,10.34,4.27A7.48,7.48,0,0,1,133.62,464.86Z" style="fill:#0187A7"></path><path d="M136.34,459.51c-.61.14-1.33-.71-1.59-1.9s0-2.26.63-2.4,1.33.72,1.6,1.9S137,459.38,136.34,459.51Z" style="fill:#fff"></path><g style="opacity:0.2"><path d="M131.1,462.16c-2.59-1.09-3.64-11.69-3.51-11.76a7.61,7.61,0,0,0-.75.28,7.41,7.41,0,0,0-3.72,9.79c1.68,3.73,6.77,6.06,10.5,4.39a7,7,0,0,0,3-2.51A9.3,9.3,0,0,1,131.1,462.16Z" style="fill:#fff"></path></g><g style="opacity:0.30000000000000004"><path d="M131.36,452.18a4.11,4.11,0,0,1,1.17,1.78,9.1,9.1,0,0,1,2.29-.17S133.18,451.64,131.36,452.18Z"></path></g><path d="M146,438a12.11,12.11,0,0,0-8.85,5.5A32,32,0,0,0,132.53,454l.42-.07s2.57-9.1,7-12,6.6-2.48,6.6-2.48Z" style="fill:#455a64"></path><path d="M166.07,477.65C162,478,158,474,157.69,470a7.41,7.41,0,0,1,6.83-7.95c4.07-.3,8,3.45,8.27,7.53A7.48,7.48,0,0,1,166.07,477.65Z" style="fill:#0187A7"></path><g style="opacity:0.30000000000000004"><path d="M166.07,477.65C162,478,158,474,157.69,470a7.41,7.41,0,0,1,6.83-7.95c4.07-.3,8,3.45,8.27,7.53A7.48,7.48,0,0,1,166.07,477.65Z"></path></g><path d="M170.45,473.55c-.62-.08-1-1.12-.85-2.33s.79-2.12,1.41-2,1,1.12.86,2.33S171.08,473.63,170.45,473.55Z" style="fill:#fff"></path><g style="opacity:0.2"><path d="M164.62,474.26c-2.06-1.91.55-12.23.69-12.25a5.21,5.21,0,0,0-.79,0,7.41,7.41,0,0,0-6.83,7.95c.31,4.08,4.3,8,8.38,7.69a7,7,0,0,0,3.64-1.35A9.29,9.29,0,0,1,164.62,474.26Z" style="fill:#fff"></path></g><g style="opacity:0.30000000000000004"><path d="M168.25,465a4.11,4.11,0,0,1,.5,2.07,9.26,9.26,0,0,1,2.21.62S170.15,465.07,168.25,465Z"></path></g><path d="M186.8,456.59a12.1,12.1,0,0,0-10.19,2.17,32,32,0,0,0-7.86,8.27l.42.08s5.51-7.69,10.7-8.9,7-.09,7-.09Z" style="fill:#455a64"></path><path d="M148.93,468.1c-.26,4.08-4.7,7.49-8.78,7.23a7.39,7.39,0,0,1-6.91-7.86c.26-4.08,4.51-7.41,8.59-7.14A7.46,7.46,0,0,1,148.93,468.1Z" style="fill:#0187A7"></path><g style="opacity:0.30000000000000004"><path d="M148.93,468.1c-.26,4.08-4.7,7.49-8.78,7.23a7.39,7.39,0,0,1-6.91-7.86c.26-4.08,4.51-7.41,8.59-7.14A7.46,7.46,0,0,1,148.93,468.1Z"></path></g><path d="M145.48,463.19c-.16.61-1.25.85-2.42.53s-2-1.08-1.83-1.69,1.26-.84,2.43-.52S145.65,462.59,145.48,463.19Z" style="fill:#fff"></path><g style="opacity:0.2"><path d="M145.38,469.07c-2.18,1.77-12-2.25-12-2.39a5.17,5.17,0,0,0-.1.79,7.39,7.39,0,0,0,6.91,7.86c4.08.26,8.52-3.15,8.78-7.23a7,7,0,0,0-.82-3.79A9.39,9.39,0,0,1,145.38,469.07Z" style="fill:#fff"></path></g><g style="opacity:0.30000000000000004"><path d="M136.68,464.18a4.11,4.11,0,0,1,2.12-.21,8.77,8.77,0,0,1,.92-2.1S137.05,462.32,136.68,464.18Z"></path></g><path d="M131,444.65a12.08,12.08,0,0,0,.73,10.39A32,32,0,0,0,138.8,464l.13-.41s-6.85-6.51-7.32-11.83.89-7,.89-7Z" style="fill:#455a64"></path><path d="M152.6,449.72c3.63-1.88,8.84.16,10.72,3.79a7.4,7.4,0,0,1-3.15,10c-3.63,1.89-8.68,0-10.56-3.67A7.48,7.48,0,0,1,152.6,449.72Z" style="fill:#0187A7"></path><g style="opacity:0.30000000000000004"><path d="M152.6,449.72c3.63-1.88,8.84.16,10.72,3.79a7.4,7.4,0,0,1-3.15,10c-3.63,1.89-8.68,0-10.56-3.67A7.48,7.48,0,0,1,152.6,449.72Z"></path></g><path d="M150.18,455.21c.61-.17,1.37.64,1.7,1.81s.11,2.26-.5,2.43-1.37-.63-1.7-1.81S149.57,455.38,150.18,455.21Z" style="fill:#fff"></path><g style="opacity:0.2"><path d="M155.27,452.27c2.64,1,4.29,11.47,4.16,11.54a5.33,5.33,0,0,0,.74-.32,7.4,7.4,0,0,0,3.15-10c-1.88-3.63-7.09-5.67-10.72-3.79a7.06,7.06,0,0,0-2.82,2.67A9.34,9.34,0,0,1,155.27,452.27Z" style="fill:#fff"></path></g><g style="opacity:0.30000000000000004"><path d="M155.57,462.25a4.15,4.15,0,0,1-1.27-1.71,9.24,9.24,0,0,1-2.28.3S153.79,462.89,155.57,462.25Z"></path></g><path d="M141.8,477.23a12.1,12.1,0,0,0,8.52-6,31.88,31.88,0,0,0,4-10.7l-.42.1s-2,9.23-6.35,12.37-6.44,2.85-6.44,2.85Z" style="fill:#455a64"></path><path d="M159.76,475.28c-1.38,3.85-6.6,5.9-10.44,4.51a7.4,7.4,0,0,1-4.47-9.46c1.38-3.85,6.39-5.87,10.24-4.49A7.49,7.49,0,0,1,159.76,475.28Z" style="fill:#0187A7"></path><path d="M157.8,469.61c-.33.54-1.44.46-2.48-.17s-1.61-1.58-1.28-2.12,1.43-.46,2.47.17S158.13,469.07,157.8,469.61Z" style="fill:#fff"></path><g style="opacity:0.2"><path d="M156.07,475.23c-2.58,1.1-10.95-5.5-10.91-5.64a6.07,6.07,0,0,0-.31.74,7.4,7.4,0,0,0,4.47,9.46c3.84,1.39,9.06-.66,10.44-4.51a7,7,0,0,0,.25-3.87A9.27,9.27,0,0,1,156.07,475.23Z" style="fill:#fff"></path></g><g style="opacity:0.30000000000000004"><path d="M149.06,468.11a4.09,4.09,0,0,1,2.1.4,9,9,0,0,1,1.47-1.77S149.94,466.43,149.06,468.11Z"></path></g><path d="M149,447.77A12.11,12.11,0,0,0,146.81,458a32,32,0,0,0,4.35,10.55l.24-.36s-4.78-8.16-3.76-13.39,2.79-6.47,2.79-6.47Z" style="fill:#455a64"></path><path d="M148.46,459.8c-3.09,2.69-8.63,1.93-11.32-1.16a7.4,7.4,0,0,1,.73-10.44c3.08-2.69,8.44-2,11.12,1.08A7.48,7.48,0,0,1,148.46,459.8Z" style="fill:#0187A7"></path><path d="M149.52,453.9c-.55.31-1.48-.3-2.08-1.36s-.64-2.17-.09-2.48,1.49.29,2.08,1.36S150.07,453.59,149.52,453.9Z" style="fill:#fff"></path><g style="opacity:0.2"><path d="M145.27,458c-2.79-.29-6.87-10.14-6.77-10.24a5.91,5.91,0,0,0-.63.49,7.4,7.4,0,0,0-.73,10.44c2.69,3.09,8.23,3.85,11.32,1.16a7.09,7.09,0,0,0,2.11-3.25A9.39,9.39,0,0,1,145.27,458Z" style="fill:#fff"></path></g><g style="opacity:0.30000000000000004"><path d="M142.63,448.33a4,4,0,0,1,1.63,1.36,8.93,8.93,0,0,1,2.14-.83S144.21,447.28,142.63,448.33Z"></path></g><path d="M152.49,430.53a12.11,12.11,0,0,0-6.88,7.83,32,32,0,0,0-1.35,11.33l.38-.19s-.18-9.46,3.27-13.53,5.59-4.28,5.59-4.28Z" style="fill:#455a64"></path><path d="M195.75,442.12a1,1,0,0,1,0,.32l0,.95-.05,1.54a13.94,13.94,0,0,1-.17,2.1c-.11.79-.24,1.66-.37,2.61s-.46,2-.71,3.06a25.53,25.53,0,0,1-1.1,3.43c-.23.6-.41,1.23-.7,1.84s-.58,1.24-.89,1.88a40.8,40.8,0,0,1-5,7.8l-1.71,1.9c-.29.31-.57.65-.88.95l-1,.9c-.67.59-1.3,1.23-2,1.8l-2.23,1.67a40.54,40.54,0,0,1-10.5,5.28,39.59,39.59,0,0,1-24.91,0,40.39,40.39,0,0,1-10.5-5.28l-2.23-1.67c-.72-.57-1.36-1.21-2-1.8l-1-.9c-.31-.3-.59-.64-.89-1l-1.71-1.89a41,41,0,0,1-5-7.8l-.9-1.88c-.29-.61-.47-1.24-.7-1.84a26.56,26.56,0,0,1-1.09-3.44c-.25-1.09-.58-2.1-.71-3.05s-.26-1.83-.38-2.61a13.82,13.82,0,0,1-.16-2.1c0-.6,0-1.11-.06-1.54s0-.71,0-.95a1.57,1.57,0,0,1,0-.32,1.19,1.19,0,0,1,0,.32c0,.24,0,.55.07.95s.06.93.1,1.53a14.19,14.19,0,0,0,.22,2.08c.12.78.26,1.65.41,2.59s.49,1.94.75,3a26.29,26.29,0,0,0,1.12,3.39c.24.59.42,1.22.71,1.82l.91,1.85a40.72,40.72,0,0,0,5,7.7l1.7,1.86c.29.31.57.64.88.94l1,.88c.66.58,1.29,1.22,2,1.77l2.21,1.65a40.51,40.51,0,0,0,10.38,5.19,39.38,39.38,0,0,0,24.6,0,40.41,40.41,0,0,0,10.39-5.19l2.2-1.65c.71-.55,1.35-1.19,2-1.77l1-.88c.31-.3.59-.63.88-.94l1.7-1.86a41.49,41.49,0,0,0,5-7.69l.9-1.85c.3-.61.48-1.24.71-1.82a25.51,25.51,0,0,0,1.13-3.4c.26-1.09.6-2.08.74-3s.3-1.81.42-2.59a15.71,15.71,0,0,0,.22-2.08c0-.6.07-1.11.1-1.53s.05-.71.07-.95A1.64,1.64,0,0,1,195.75,442.12Z" style="fill:#263238"></path><path d="M195.75,441.74s0-.16-.15-.39a2.22,2.22,0,0,0-.93-.76,18.31,18.31,0,0,0-4.5-1.41,125.44,125.44,0,0,0-17.33-2c-7.36-.42-16.15-.6-25.89-.3-4.87.16-10,.43-15.26,1-2.63.27-5.31.6-8,1.08a39.87,39.87,0,0,0-4,.92,12.67,12.67,0,0,0-1.93.7,4,4,0,0,0-.85.5c-.24.19-.47.43-.46.65,0,.47.73.89,1.3,1.16a12.67,12.67,0,0,0,1.93.7,40.06,40.06,0,0,0,4,.92c2.69.48,5.37.81,8,1.08,5.28.54,10.39.81,15.26,1,9.75.3,18.53.12,25.89-.3a125.44,125.44,0,0,0,17.33-2,18.31,18.31,0,0,0,4.5-1.41,2.22,2.22,0,0,0,.93-.76c.15-.23.12-.39.15-.38a.67.67,0,0,1-.1.4,2.17,2.17,0,0,1-.92.83,17.53,17.53,0,0,1-4.51,1.51,118.23,118.23,0,0,1-17.35,2.15c-7.37.46-16.17.68-25.93.41-4.88-.15-10-.41-15.3-.94-2.65-.27-5.33-.59-8-1.08-1.36-.25-2.72-.54-4.07-.93a13.73,13.73,0,0,1-2-.73,4.83,4.83,0,0,1-1-.56,1.49,1.49,0,0,1-.65-1.07,1.46,1.46,0,0,1,.65-1.06,4.7,4.7,0,0,1,1-.56,13.32,13.32,0,0,1,2-.73c1.35-.39,2.71-.68,4.06-.93,2.71-.49,5.4-.81,8-1.08,5.29-.53,10.42-.79,15.3-.94,9.76-.27,18.56-.05,25.92.42A117.26,117.26,0,0,1,190.22,439a17.53,17.53,0,0,1,4.51,1.51,2.24,2.24,0,0,1,.92.83A.7.7,0,0,1,195.75,441.74Z" style="fill:#263238"></path></g><g id="freepik--measuring-pitcher--inject-282"><path d="M45.1,361.93,56.9,374.1l10,61.22c13.7,3.38,28,4.27,43.52,0l4.43-64.54h0c.23,0,.47,0,.7,0a7.85,7.85,0,0,1,6.93,7.26l1.71,19.86h5.16l2.09-36C109,355.48,67.17,356,45.1,361.93Z" style="fill:#455a64"></path><path d="M45.1,361.93l1.53-.4c1-.24,2.55-.69,4.55-1A152.88,152.88,0,0,1,68.68,358a236.18,236.18,0,0,1,27.46-.81c5.31.11,11,.5,16.87,1.12a113.78,113.78,0,0,1,18.45,3.37l.18.05v.18c-.64,11-1.34,23.21-2.07,36l0,.24h-5.63l0-.23q-.45-5.34-.93-10.86-.24-2.76-.48-5.57l-.24-2.81a8.81,8.81,0,0,0-.53-2.71,7.76,7.76,0,0,0-3.53-4.12,7.09,7.09,0,0,0-2.66-.81l-.7,0h0c-.23.21.31-.3.26-.24v.34l0,.36-.1,1.46q-.4,5.82-.81,11.75c-1.21,17.62-2.38,34.62-3.48,50.63v.17l-.17.05a79.93,79.93,0,0,1-22.68,2.86,94.64,94.64,0,0,1-21-2.89l-.14,0,0-.15c-4.27-26.5-7.7-47.82-9.86-61.24l0,.06L45.1,361.93,57,374l0,0v0c2.21,13.4,5.71,34.72,10.07,61.2l-.17-.17A94.68,94.68,0,0,0,87.77,438a79.62,79.62,0,0,0,22.54-2.87l-.18.22c1.1-16,2.26-33,3.46-50.63q.41-5.93.81-11.75l.1-1.45,0-.37,0-.18v-.16l.26-.24h0l.75,0a7.63,7.63,0,0,1,2.85.87,8.28,8.28,0,0,1,3.78,4.4,9.72,9.72,0,0,1,.55,2.85l.24,2.81q.24,2.81.48,5.56c.31,3.68.62,7.31.93,10.87l-.25-.23h5.16l-.25.24c.75-12.8,1.47-25,2.12-36l.16.23A113.68,113.68,0,0,0,113,358.75c-5.91-.63-11.54-1-16.84-1.16a240.4,240.4,0,0,0-27.43.71,158.44,158.44,0,0,0-17.49,2.32c-2,.34-3.49.74-4.53.95Z" style="fill:#263238"></path><path d="M99.85,418.23a1.84,1.84,0,0,1,0-.55c0-.42,0-.94,0-1.58,0-1.44,0-3.4,0-5.79,0-5,0-11.68,0-19.11s.16-14.15.21-19.11c0-2.39.09-4.35.13-5.79,0-.63,0-1.15,0-1.57a2,2,0,0,1,.06-.55,1.84,1.84,0,0,1,0,.55c0,.42,0,.94,0,1.57,0,1.45,0,3.41,0,5.8,0,4.95,0,11.68-.06,19.11s-.15,14.14-.21,19.1c0,2.39-.09,4.35-.12,5.79,0,.64,0,1.16-.06,1.58A3.43,3.43,0,0,1,99.85,418.23Z" style="fill:#263238"></path><path d="M100.33,373.35a9.93,9.93,0,0,1-3.21.26,9.93,9.93,0,0,1-3.21-.26,10.27,10.27,0,0,1,3.21-.26A10.27,10.27,0,0,1,100.33,373.35Z" style="fill:#263238"></path><path d="M100.33,388.31a10.27,10.27,0,0,1-3.21.26,10.27,10.27,0,0,1-3.21-.26,10.27,10.27,0,0,1,3.21-.26A10.27,10.27,0,0,1,100.33,388.31Z" style="fill:#263238"></path><path d="M99.85,403.27a10.31,10.31,0,0,1-3.22.26,10.27,10.27,0,0,1-3.21-.26,10.27,10.27,0,0,1,3.21-.26A10.31,10.31,0,0,1,99.85,403.27Z" style="fill:#263238"></path><path d="M100,418.07a9.88,9.88,0,0,1-3.21.26,9.93,9.93,0,0,1-3.21-.26,10.27,10.27,0,0,1,3.21-.26A10.22,10.22,0,0,1,100,418.07Z" style="fill:#263238"></path><path d="M131.42,362.35a4.43,4.43,0,0,1-.87.13l-2.49.26c-2.16.21-5.3.47-9.18.74-7.75.53-18.49,1-30.36,1s-22.6-.61-30.35-1.21c-3.88-.3-7-.58-9.17-.82l-2.49-.28a5.67,5.67,0,0,1-.87-.13,4.89,4.89,0,0,1,.88,0l2.49.18c2.17.17,5.31.4,9.18.65,7.75.51,18.48,1,30.34,1.05s22.58-.36,30.33-.8c3.88-.22,7-.42,9.19-.58l2.49-.15A6.47,6.47,0,0,1,131.42,362.35Z" style="fill:#263238"></path><path d="M109.78,433.11a9.51,9.51,0,0,1-1.65-.29c-1-.24-2.58-.53-4.47-.83s-4.17-.58-6.7-.78a76.29,76.29,0,0,0-16.45.59c-2.51.38-4.76.81-6.62,1.26s-3.37.83-4.4,1.14a9,9,0,0,1-1.63.41,12.18,12.18,0,0,1,1.57-.6c1-.37,2.5-.82,4.37-1.31a66,66,0,0,1,6.64-1.37,74.3,74.3,0,0,1,8.26-.79,76.72,76.72,0,0,1,8.3.19c2.54.23,4.82.53,6.72.9s3.42.7,4.46,1A12.16,12.16,0,0,1,109.78,433.11Z" style="fill:#263238"></path></g></svg>
